<svg width="60" height="60" viewBox="0 0 60 60" fill="none" xmlns="http://www.w3.org/2000/svg">
<rect x="0.5" y="0.5" width="59" height="59" rx="29.5" fill="#573CFF"/>
<rect x="0.5" y="0.5" width="59" height="59" rx="29.5" fill="white" fill-opacity="0.95"/>
<g clip-path="url(#clip0_2184_71458)">
<g filter="url(#filter0_d_2184_71458)">
<path d="M30.6084 7.95166H29.3945V15.4029H30.6084V7.95166Z" fill="#573CFF"/>
<path d="M30.6084 7.95166H29.3945V15.4029H30.6084V7.95166Z" fill="black" fill-opacity="0.4"/>
</g>
<path d="M34.1901 19.5188H25.8092C25.1924 19.5188 24.6895 19.0506 24.6895 18.4712V15.6692C24.6895 15.0921 25.1899 14.6216 25.8092 14.6216H34.1901C34.8069 14.6216 35.3098 15.0897 35.3098 15.6692V18.4712C35.3098 19.0483 34.8094 19.5188 34.1901 19.5188Z" fill="#573CFF"/>
<path d="M49 35.8025C49 40.3288 45.0784 43.9976 40.2401 43.9976H19.7599C14.9415 44 11 40.3103 11 35.8025V31.545C11 23.526 18.0134 16.9624 26.5875 16.9624H33.415C41.9891 16.9624 49.0025 23.5236 49.0025 31.545V35.8025H49Z" fill="#573CFF"/>
<path d="M49 35.8025C49 40.3288 45.0784 43.9976 40.2401 43.9976H19.7599C14.9415 44 11 40.3103 11 35.8025V31.545C11 23.526 18.0134 16.9624 26.5875 16.9624H33.415C41.9891 16.9624 49.0025 23.5236 49.0025 31.545V35.8025H49Z" fill="white" fill-opacity="0.4"/>
<path d="M43.0246 35.026C42.5267 35.2554 41.9693 35.3759 41.4044 35.3759H18.598C18.0307 35.3759 17.4733 35.2554 16.9778 35.026C15.7565 34.4605 15.0678 33.3202 15.2387 32.1498L15.2511 32.064C15.8358 28.1009 19.6732 25.0532 24.3752 24.826C26.3645 24.7287 28.4529 24.68 30.6329 24.6916C32.3398 24.7009 33.9897 24.7472 35.5777 24.8237C40.2995 25.0509 44.1642 28.087 44.7513 32.064C44.7563 32.0918 44.7588 32.122 44.7637 32.1498C44.9347 33.3225 44.246 34.4628 43.0246 35.026Z" fill="#573CFF"/>
<path d="M23.9917 32.9056C25.4228 32.9056 26.583 31.8203 26.583 30.4814C26.583 29.1425 25.4228 28.0571 23.9917 28.0571C22.5606 28.0571 21.4004 29.1425 21.4004 30.4814C21.4004 31.8203 22.5606 32.9056 23.9917 32.9056Z" fill="url(#paint0_linear_2184_71458)"/>
<path d="M35.5308 32.9056C36.9619 32.9056 38.1221 31.8203 38.1221 30.4814C38.1221 29.1425 36.9619 28.0571 35.5308 28.0571C34.0996 28.0571 32.9395 29.1425 32.9395 30.4814C32.9395 31.8203 34.0996 32.9056 35.5308 32.9056Z" fill="url(#paint1_linear_2184_71458)"/>
<path d="M25.6529 29.8533C25.6529 30.3493 25.2218 30.7526 24.6917 30.7526C24.1615 30.7526 23.7305 30.3493 23.7305 29.8533C23.7305 29.3574 24.1615 28.9541 24.6917 28.9541C25.2218 28.9541 25.6529 29.3574 25.6529 29.8533Z" fill="#EEFDFF"/>
<path d="M37.192 29.8533C37.192 30.3493 36.7609 30.7526 36.2307 30.7526C35.7006 30.7526 35.2695 30.3493 35.2695 29.8533C35.2695 29.3574 35.7006 28.9541 36.2307 28.9541C36.7609 28.9541 37.192 29.3574 37.192 29.8533Z" fill="#EEFDFF"/>
<path d="M37.2681 29.8533C37.2681 30.3493 36.8371 30.7526 36.3069 30.7526C35.7768 30.7526 35.3457 30.3493 35.3457 29.8533C35.3457 29.3574 35.7768 28.9541 36.3069 28.9541C36.8371 28.9541 37.2681 29.3574 37.2681 29.8533Z" fill="#EEFDFF"/>
<path d="M31.5549 7.45548C31.5549 8.2597 30.8588 8.91095 29.9991 8.91095C29.1395 8.91095 28.4434 8.2597 28.4434 7.45548C28.4458 6.65126 29.142 6 30.0016 6C30.8588 6 31.5549 6.65126 31.5549 7.45548Z" fill="#573CFF"/>
<path d="M31.0811 6.88751C31.0811 7.13318 30.8681 7.33018 30.6079 7.33018C30.3453 7.33018 30.1348 7.13087 30.1348 6.88751C30.1348 6.64184 30.3478 6.44484 30.6079 6.44484C30.8681 6.44253 31.0811 6.64184 31.0811 6.88751Z" fill="white"/>
</g>
<rect x="0.5" y="0.5" width="59" height="59" rx="29.5" stroke="#573CFF"/>
<rect x="0.5" y="0.5" width="59" height="59" rx="29.5" stroke="white" stroke-opacity="0.8"/>
<defs>
<filter id="filter0_d_2184_71458" x="25.3945" y="7.95166" width="9.21484" height="15.4512" filterUnits="userSpaceOnUse" color-interpolation-filters="sRGB">
<feFlood flood-opacity="0" result="BackgroundImageFix"/>
<feColorMatrix in="SourceAlpha" type="matrix" values="0 0 0 0 0 0 0 0 0 0 0 0 0 0 0 0 0 0 127 0" result="hardAlpha"/>
<feOffset dy="4"/>
<feGaussianBlur stdDeviation="2"/>
<feComposite in2="hardAlpha" operator="out"/>
<feColorMatrix type="matrix" values="0 0 0 0 0 0 0 0 0 0 0 0 0 0 0 0 0 0 0.25 0"/>
<feBlend mode="normal" in2="BackgroundImageFix" result="effect1_dropShadow_2184_71458"/>
<feBlend mode="normal" in="SourceGraphic" in2="effect1_dropShadow_2184_71458" result="shape"/>
</filter>
<linearGradient id="paint0_linear_2184_71458" x1="21.3982" y1="30.4814" x2="26.583" y2="30.4814" gradientUnits="userSpaceOnUse">
<stop stop-color="#030D14"/>
<stop offset="1" stop-color="#0B2F45"/>
</linearGradient>
<linearGradient id="paint1_linear_2184_71458" x1="32.9372" y1="30.4814" x2="38.122" y2="30.4814" gradientUnits="userSpaceOnUse">
<stop stop-color="#030D14"/>
<stop offset="1" stop-color="#0B2F45"/>
</linearGradient>
<clipPath id="clip0_2184_71458">
<rect width="38" height="38" fill="white" transform="translate(11 6)"/>
</clipPath>
</defs>
</svg>
