<svg width="48" height="48" viewBox="0 0 48 48" fill="none" xmlns="http://www.w3.org/2000/svg">
<rect width="48" height="48" rx="13" fill="white"/>
<path d="M36.6754 6.19075H35.3346L35.6639 4.88348C35.7301 4.61993 35.5323 4.36377 35.2617 4.36377H17.7169C17.2375 4.36377 16.8212 4.69382 16.7085 5.16242L10.9376 29.2586C10.7802 29.9144 11.2749 30.5456 11.9459 30.5456H29.4755C29.6653 30.5456 29.8312 30.4163 29.8777 30.2309L30.2591 28.7186H31.8105C32.0003 28.7186 32.1656 28.5893 32.2128 28.4039L32.4638 27.4089C32.5305 27.1453 32.3322 26.8892 32.0615 26.8892H30.7207L30.2597 28.7186H12.9353L18.3309 6.19014H35.3346L34.8729 8.0202L19.774 7.98879L17.8418 16.1292L27.7312 16.1606L27.2696 17.9907H17.4707L15.2844 26.8885H30.7195L31.0489 25.5813C31.1156 25.3177 30.9173 25.0616 30.6467 25.0616H18.1344C17.865 25.0616 17.6673 24.8073 17.7316 24.5443L18.8146 20.1348C18.8605 19.9488 19.0264 19.8177 19.2175 19.8177H28.36C28.5498 19.8177 28.7151 19.6884 28.7622 19.503L29.9334 14.8589C29.9995 14.596 29.8024 14.3398 29.5324 14.3392L20.6648 14.3115C20.3972 14.3109 20.2007 14.059 20.2625 13.7973L21.1307 10.1403C21.1754 9.95248 21.3425 9.81947 21.5348 9.82009L34.0893 9.84595C34.2797 9.84656 34.4456 9.71664 34.4921 9.53129L34.8729 8.0202H36.4237C36.6135 8.0202 36.7788 7.89089 36.826 7.70554L37.077 6.70984C37.1437 6.44691 36.946 6.19075 36.6754 6.19075Z" fill="url(#paint0_linear_216_37677)"/>
<path d="M6.54492 34.9092H11.8482V36.3939H7.83478V38.9651H11.5488V40.3676H7.83478V43.2409H11.9182V44.7256H6.54492V34.9092Z" fill="#0167FF"/>
<path d="M14.4188 40.9587L12.5585 37.5659H13.9929L15.1155 39.7675L16.2894 37.5659H17.6615L15.8324 40.8773L17.8884 44.7255H16.4624L15.1013 42.0798L13.781 44.7255H12.3926L14.4188 40.9587Z" fill="#0167FF"/>
<path d="M20.3914 40.9587L18.5312 37.5659H19.9656L21.0875 39.7675L22.262 37.5659H23.6342L21.8051 40.8773L23.863 44.7272H22.437L21.0759 42.0815L19.7562 44.7272H18.3652L20.3914 40.9587Z" fill="#0167FF"/>
<path d="M25.3798 41.449C25.3794 41.713 25.4084 41.9756 25.4661 42.2281C25.5192 42.4691 25.6073 42.6939 25.7253 42.8895C25.8432 43.0815 25.9918 43.2357 26.1602 43.3406C26.3572 43.459 26.5717 43.5167 26.7877 43.5094C27.1254 43.5094 27.3963 43.4133 27.6024 43.2194C27.8206 43.0031 27.9817 42.7 28.0626 42.3536H29.1554C29.0998 42.7141 28.9931 43.057 28.8411 43.3639C28.6972 43.654 28.5157 43.9073 28.305 44.1119C28.0917 44.3169 27.8539 44.4721 27.6018 44.5708C27.3372 44.6748 27.0628 44.727 26.787 44.7257C26.4128 44.7352 26.0411 44.6433 25.6942 44.4556C25.3868 44.2867 25.1112 44.0288 24.8872 43.7007C24.663 43.365 24.494 42.9701 24.3914 42.5415C24.277 42.0619 24.2208 41.561 24.2248 41.0577C24.223 40.5781 24.2829 40.1017 24.4018 39.6491C24.5133 39.219 24.6848 38.8209 24.9073 38.4761C25.1357 38.1228 25.4196 37.8411 25.7388 37.6511C26.058 37.4611 26.4046 37.3673 26.754 37.3766C27.1391 37.3689 27.5197 37.4878 27.8623 37.7229C28.1808 37.9422 28.4591 38.2529 28.6771 38.6328C28.8965 39.0199 29.0564 39.4613 29.1477 39.9314C29.2451 40.4259 29.2708 40.9407 29.2235 41.4481L25.3798 41.449ZM28.0717 40.4378C28.0585 40.1977 28.0192 39.9615 27.955 39.7366C27.895 39.5215 27.806 39.3228 27.6925 39.1505C27.5783 38.9818 27.4408 38.8442 27.2874 38.7453C27.1215 38.64 26.9396 38.587 26.7559 38.5903C26.5669 38.5871 26.3795 38.6354 26.205 38.7323C26.0446 38.8219 25.8998 38.9549 25.7798 39.1228C25.6597 39.294 25.5637 39.4929 25.4965 39.7097C25.4248 39.9409 25.3853 40.1877 25.3798 40.4378H28.0717Z" fill="#0167FF"/>
<path d="M29.625 34.9092H30.9661L32.8127 42.6773H32.8334L34.7216 34.9092H36.0315L33.514 44.7256H32.0829L29.625 34.9092Z" fill="#0167FF"/>
<path d="M36.7383 37.5706H37.8596V38.6268L37.8804 38.6545C38.0527 38.2681 38.2958 37.9466 38.5869 37.7204C38.8801 37.4934 39.2137 37.3762 39.5526 37.381C40.1412 37.381 40.605 37.583 40.9442 37.987C41.2835 38.391 41.4531 38.9999 41.4531 39.8137V44.7267H40.2695V40.2249C40.2552 39.6628 40.1651 39.2547 39.9992 39.0008C39.8333 38.7468 39.574 38.6199 39.2214 38.6199C39.0357 38.6157 38.8515 38.6654 38.6815 38.7653C38.5262 38.8583 38.388 38.9954 38.2764 39.167C38.1624 39.3456 38.0745 39.5512 38.0171 39.773C37.9541 40.0082 37.9223 40.2564 37.9231 40.5063V44.7275H36.7383V37.5706Z" fill="#0167FF"/>
<defs>
<linearGradient id="paint0_linear_216_37677" x1="26.5156" y1="3.73697" x2="21.9856" y2="29.1716" gradientUnits="userSpaceOnUse">
<stop stop-color="#00FFB7"/>
<stop offset="0.0715" stop-color="#0BE7C4"/>
<stop offset="0.2538" stop-color="#0167FF"/>
<stop offset="0.3899" stop-color="#0167FF"/>
<stop offset="0.4633" stop-color="#0167FF"/>
<stop offset="0.5714" stop-color="#0167FF"/>
<stop offset="0.7014" stop-color="#0167FF"/>
<stop offset="0.8426" stop-color="#0167FF"/>
<stop offset="0.9907" stop-color="#0092FF"/>
<stop offset="0.9908" stop-color="#0167FF"/>
</linearGradient>
</defs>
</svg>
