<svg width="25" height="24" viewBox="0 0 25 24" fill="none" xmlns="http://www.w3.org/2000/svg">
<path d="M13.5 3H11.5C6.52944 3 2.5 7.02944 2.5 12V17C2.5 19.2091 4.29086 21 6.5 21H13.5C18.4706 21 22.5 16.9706 22.5 12C22.5 7.02944 18.4706 3 13.5 3Z" stroke="#573CFF" stroke-width="1.5" stroke-linejoin="round"/>
<path d="M13.5 3H11.5C6.52944 3 2.5 7.02944 2.5 12V17C2.5 19.2091 4.29086 21 6.5 21H13.5C18.4706 21 22.5 16.9706 22.5 12C22.5 7.02944 18.4706 3 13.5 3Z" stroke="black" stroke-opacity="0.8" stroke-width="1.5" stroke-linejoin="round"/>
<circle cx="12.5" cy="12" r="1" fill="#573CFF"/>
<circle cx="12.5" cy="12" r="1" fill="black" fill-opacity="0.8"/>
<circle cx="16.5" cy="12" r="1" fill="#573CFF"/>
<circle cx="16.5" cy="12" r="1" fill="black" fill-opacity="0.8"/>
<circle cx="8.5" cy="12" r="1" fill="#573CFF"/>
<circle cx="8.5" cy="12" r="1" fill="black" fill-opacity="0.8"/>
</svg>
